<svg xmlns="http://www.w3.org/2000/svg" width="247.831" height="27.568" viewBox="0 0 247.831 27.568">
  <path id="Path_10285" data-name="Path 10285" d="M112.819,120.214a13.882,13.882,0,0,0,.056,18.34,11.065,11.065,0,0,0,8.382,3.713,11.191,11.191,0,0,0,8.214-3.432v.619a12.724,12.724,0,0,1-8.5,3.263,13.5,13.5,0,0,1-9.733-3.825,12.9,12.9,0,0,1-3.882-9.508,12.6,12.6,0,0,1,4.051-9.452,13.493,13.493,0,0,1,9.845-3.938,14.166,14.166,0,0,1,3.263.45c1.181.281,1.8.394,1.857.394.731,0,.844-.225.619-.957h.337l1.857,4.669h-.337a8.712,8.712,0,0,0-7.651-4.219A10.855,10.855,0,0,0,112.819,120.214Zm22.594,10.07a.563.563,0,0,1,.619-.619H147.4a.563.563,0,0,1,.619.619v10.858a.717.717,0,0,1-.619.619h-.45v.337h3.938v-.337h-.45a.563.563,0,0,1-.619-.619V117.4a.563.563,0,0,1,.619-.619h.45v-.337h-3.938v.337h.45a.717.717,0,0,1,.619.619v11.308a.563.563,0,0,1-.619.619H136.032a.567.567,0,0,1-.619-.506V117.4a.563.563,0,0,1,.619-.619h.45v-.337h-3.938v.337h.45a.563.563,0,0,1,.619.619v23.741a.717.717,0,0,1-.619.619h-.45v.337h3.938v-.337h-.45a.563.563,0,0,1-.619-.619Zm36.715,11.476v.338h-4.051v-.338h.452c.5,0,.673-.224.618-.618l-1.577-5.907a.959.959,0,0,0-1.067-.79H158.8a.963.963,0,0,0-1.069.79l-1.18,4.275c-.393,1.18,0,2.25.9,2.25h.227v.338h-3.713v-.338h.28c.787,0,1.408-.731,1.8-2.25l5.852-21.434c.224-.731-.058-1.294-.676-1.294h-.449v-.338h4.893v.338h-.449a.588.588,0,0,0-.621.618l6.47,23.742c.058.393.283.618.621.618Zm-5.062-8.495-4.389-16.372-.058.058-4.386,16.314a.622.622,0,0,0,.618.845h7.594A.623.623,0,0,0,167.066,133.265Zm24.45-13.67c0-1.857.619-2.813,1.857-2.813v-.337h-4.388v.337c1.406,0,2.138.957,2.138,2.813v19.859l-11.7-23.01h-3.432v.337h.45a.717.717,0,0,1,.619.619v21.547c0,1.857-.619,2.813-1.857,2.813v.337h4.388v-.337c-1.407,0-2.138-.957-2.138-2.813V117.12L190.279,142.1h1.237Zm17.635-3.263a8.713,8.713,0,0,1,7.652,4.219h.337l-1.857-4.669h-.338c.225.731.113.957-.619.957-.056,0-.675-.113-1.857-.394a14.163,14.163,0,0,0-3.263-.45,13.494,13.494,0,0,0-9.846,3.938,12.6,12.6,0,0,0-4.051,9.452,12.9,12.9,0,0,0,3.882,9.508,13.5,13.5,0,0,0,9.733,3.825,12.725,12.725,0,0,0,8.5-3.263v-.619a11.192,11.192,0,0,1-8.214,3.432,11.066,11.066,0,0,1-8.383-3.713,13.882,13.882,0,0,1-.056-18.34A10.856,10.856,0,0,1,209.151,116.332Zm20.626.449c1.35,0,2.869,1.575,3.263,2.25l.506.844h.281l-1.969-4.388h-.281c.337,1.013-.731.957-1.407.957h-9.676v.337h.45a.716.716,0,0,1,.619.619v23.741a.717.717,0,0,1-.619.619h-.45v.337h10.014c1.069,0,1.8.225,1.575.957h.281l2.025-4.5h-.281l-.45.844c-.619,1.069-2.025,2.363-3.375,2.363h-6.3a.563.563,0,0,1-.619-.619V126.233a.563.563,0,0,1,.619-.619h4.782a2.252,2.252,0,0,1,2.082,2.194h.281v-4.67h-.281a2.241,2.241,0,0,1-2.082,2.138h-4.782a.563.563,0,0,1-.619-.619V117.4a.563.563,0,0,1,.619-.619Zm10.555.62a.563.563,0,0,1,.619-.619h3.038a5.37,5.37,0,0,1,5.682,5.4,5.633,5.633,0,0,1-5.682,5.963h-2.307v.337h.9c1.631-.225,2.7,1.407,3.207,2.813.394.731,1.069,2.982,1.35,3.713,1.631,4.557,3.6,6.92,5.795,7.089h.45v-.337h-.45c-1.294-.057-2.476-2.813-3.432-5.682a22.539,22.539,0,0,0-1.969-4.332,7.282,7.282,0,0,0-2.813-3.094v-.169c4.444-.281,6.976-2.757,6.976-6.3,0-3.376-2.7-5.738-7.707-5.738h-6.526v.337h.45a.563.563,0,0,1,.619.619v23.741a.717.717,0,0,1-.619.619h-.45v.337H241.4v-.337h-.45a.563.563,0,0,1-.619-.619Zm27.454-.619h.45c.956,0,.787,1.744.225,2.869l-4.838,10.126a.368.368,0,0,1-.619,0L256.647,117.4a.382.382,0,0,1,.338-.619h.45v-.337h-4.051v.337h.45a1.015,1.015,0,0,1,.844.619l7.089,13.67v10.07a.717.717,0,0,1-.619.619h-.45v.337h3.938v-.337h-.45a.563.563,0,0,1-.619-.619V130.734l5.738-11.814c.731-1.407,1.463-2.138,2.251-2.138h.281v-.337h-4.051Zm26.3-.337v.337h.45a.563.563,0,0,1,.619.619v23.741a.717.717,0,0,1-.619.619h-.45v.337H304.49c1.069,0,1.463.337,1.294.957h.337l2.082-4.67h-.337l-.619.844c-.731,1.125-2.363,2.532-3.713,2.532h-5.963a.563.563,0,0,1-.619-.619V117.4a.563.563,0,0,1,.619-.619h1.238v-.337Zm22.9,25.316v.338h-3.993v-.338h.449a.585.585,0,0,0,.618-.618l-2.081-7.484a.958.958,0,0,0-1.07-.787h-6.47a.961.961,0,0,0-1.069.787l-.5,1.577c-.393,1.125-.058,2.7.673,2.7h.452v.338h-3.544v-.338h.449c.507,0,.956-.9,1.463-2.7l4.727-17.159c.224-.731-.058-1.294-.676-1.294h-.449v-.338h4.555v.338h-.449a.589.589,0,0,0-.621.618l6.47,23.742c.058.393.283.618.621.618Zm-5.511-10.069-3.826-14.122-3.771,14.122a.62.62,0,0,0,.621.842h6.356A.7.7,0,0,0,311.469,131.692Zm24.9-12.1c0-1.857.619-2.813,1.857-2.813v-.337h-4.388v.337c1.407,0,2.138.957,2.138,2.813v19.859l-11.7-23.01H320.84v.337h.45a.716.716,0,0,1,.619.619v21.547c0,1.857-.619,2.813-1.857,2.813v.337h4.388v-.337c-1.407,0-2.138-.957-2.138-2.813V117.12L335.129,142.1h1.238Zm14.212-2.813c1.35,0,2.869,1.575,3.263,2.25l.506.844h.281l-1.969-4.388h-.281c.338,1.013-.731.957-1.406.957H341.3v.337h.45a.717.717,0,0,1,.619.619v23.741a.717.717,0,0,1-.619.619h-.45v.337h10.014c1.069,0,1.8.225,1.575.957h.281l2.025-4.5h-.281l-.45.844c-.619,1.069-2.025,2.363-3.376,2.363h-6.3a.563.563,0,0,1-.619-.619V126.234a.563.563,0,0,1,.619-.619h4.782a2.252,2.252,0,0,1,2.081,2.194h.281v-4.67h-.281a2.241,2.241,0,0,1-2.081,2.138h-4.782a.563.563,0,0,1-.619-.619V117.4a.563.563,0,0,1,.619-.619h5.795ZM282.82,129.276l-1.834-1.835-1.834,1.829,1.834,1.835Z" transform="translate(-107.362 -115.487)" fill="#f9f9f4"/>
</svg>
