<svg xmlns="http://www.w3.org/2000/svg" width="137.936" height="42.463" viewBox="0 0 137.936 42.463">
  <g id="Group_4583" data-name="Group 4583" transform="translate(-1743 -5037.5)">
    <path id="Path_11589" data-name="Path 11589" d="M2.855,14.55c.11,1.949.713,2.882,1.976,2.882A1.75,1.75,0,0,0,6.67,15.566c0-1.619-1.1-2.607-2.69-4.2C1.812,9.2.274,7.606.274,5.053A4.7,4.7,0,0,1,4.913.2C7.384.2,9.167,1.979,9.387,5L6.478,5.41c-.11-1.674-.549-2.415-1.647-2.415A1.6,1.6,0,0,0,3.239,4.779c0,1.757,1.29,2.937,2.992,4.584,2.058,2,3.348,3.458,3.348,6.148a4.565,4.565,0,0,1-4.639,4.83c-2.909,0-4.8-1.949-4.94-5.352Z" transform="translate(1743 5037.388)" fill="#f9f9f4"/>
    <path id="Path_11590" data-name="Path 11590" d="M29.969,4.886C29.969,1.867,31.7,0,34.662,0c2.717,0,4.5,1.839,4.5,4.968V6.835H36.09V4.694c0-1.345-.521-2-1.537-2s-1.537.659-1.537,2V15.508c0,1.345.521,2.031,1.537,2.031s1.537-.686,1.537-2.031V12.873h3.074V14.9c0,3.431-1.7,5.3-4.611,5.3-3.019,0-4.584-1.839-4.584-5.379V4.886Z" transform="translate(1725.712 5037.5)" fill="#f9f9f4"/>
    <path id="Path_11591" data-name="Path 11591" d="M66.253,4.694c0-1.345-.521-2-1.537-2s-1.537.659-1.537,2V15.508c0,1.345.521,2.031,1.537,2.031s1.537-.686,1.537-2.031ZM64.825,0c2.717,0,4.5,1.839,4.5,4.968V14.9c0,3.431-1.7,5.3-4.611,5.3-2.964,0-4.584-1.839-4.584-5.38V4.886C60.132,1.867,61.861,0,64.825,0" transform="translate(1708.313 5037.5)" fill="#f9f9f4"/>
    <path id="Path_11592" data-name="Path 11592" d="M87.506.974H97.578l-1.786,2.8H93.6V20.351H90.608V3.773h-3.1Z" transform="translate(1692.521 5036.938)" fill="#f9f9f4"/>
    <path id="Path_11593" data-name="Path 11593" d="M112.751.974H120.5v2.8H117.37V20.351h-2.992V3.773h-3.413Z" transform="translate(1678.988 5036.938)" fill="#f9f9f4"/>
    <path id="Path_11594" data-name="Path 11594" d="M279.995,1.024h10.073l-1.786,2.8h-2.193V20.4H283.1V3.824h-3.1Z" transform="translate(1581.481 5036.909)" fill="#f9f9f4"/>
    <path id="Path_11595" data-name="Path 11595" d="M305.239,1.024l-1.786,2.8h3.414V20.4h2.992V3.824h3.129v-2.8Z" transform="translate(1567.949 5036.909)" fill="#f9f9f4"/>
    <path id="Path_11596" data-name="Path 11596" d="M153.964,9.734c1.482,0,1.839-.823,1.839-3.074,0-2.168-.439-2.854-1.949-2.854h-1.07V9.734Zm-4.172-8.728h4.392c3.239,0,4.666,1.647,4.666,5.6,0,3.788-1.619,5.9-4.007,5.9h-2.059v7.878h-2.992Z" transform="translate(1656.591 5036.919)" fill="#f9f9f4"/>
    <rect id="Rectangle_4617" data-name="Rectangle 4617" width="3.047" height="19.378" transform="translate(1818.898 5037.926)" fill="#f9f9f4"/>
    <path id="Path_11597" data-name="Path 11597" d="M196.042,4.918c0-3.019,1.729-4.885,4.693-4.885,2.717,0,4.5,1.839,4.5,4.968V6.867h-3.074V4.726c0-1.345-.521-2-1.537-2s-1.537.658-1.537,2V15.541c0,1.345.521,2.031,1.537,2.031s1.537-.686,1.537-2.031V12.906h3.074v2.031c0,3.431-1.7,5.3-4.611,5.3-3.019,0-4.584-1.839-4.584-5.379Z" transform="translate(1629.91 5037.48)" fill="#f9f9f4"/>
    <path id="Path_11598" data-name="Path 11598" d="M227.048,1.006h2.992V9.185a11.274,11.274,0,0,1,.412-1.262l2.964-6.917h2.964l-3.321,6.615,3.706,12.763h-3.1l-2.525-9.744-1.1,2.2v7.548h-2.992Z" transform="translate(1612.023 5036.919)" fill="#f9f9f4"/>
    <path id="Path_11599" data-name="Path 11599" d="M256.887,1.006h7.8v2.8h-4.8V8.884h3.459v2.8h-3.459v5.791h4.8v2.91h-7.8Z" transform="translate(1594.812 5036.92)" fill="#f9f9f4"/>
    <path id="Path_11600" data-name="Path 11600" d="M50.754,87.434c.316,0,.613,0,.848-.006-.041.2-.11.681-.162.981l-.222.014c-.025-.593-.111-.727-.524-.727h-.5c-.226,0-.307.028-.354.266L49.6,89.25h.541c.52,0,.54-.074.719-.507h.219l-.256,1.308H50.6c.008-.481.011-.535-.512-.535h-.553l-.214,1.131c-.09.443-.052.582.35.582h.389a.845.845,0,0,0,.669-.192,2.238,2.238,0,0,0,.453-.6l.209.079c-.071.211-.279.767-.372.977H47.871l.047-.2c.517-.044.583-.083.677-.574l.489-2.5c.093-.488.05-.532-.464-.576l.054-.207Z" transform="translate(1715.385 4987.065)" fill="#f9f9f4"/>
    <path id="Path_11601" data-name="Path 11601" d="M61.116,90.207c.063.469.284,1.014.948,1.014a.652.652,0,0,0,.7-.705,1.009,1.009,0,0,0-.529-.831l-.206-.154a1.4,1.4,0,0,1-.715-1.105,1.219,1.219,0,0,1,1.362-1.19,3.373,3.373,0,0,1,1.009.17,8.107,8.107,0,0,0-.129.941l-.216.016c-.014-.43-.132-.893-.732-.893a.627.627,0,0,0-.653.688c0,.32.163.509.5.749l.217.156a1.459,1.459,0,0,1,.782,1.158A1.326,1.326,0,0,1,62,91.473a2.386,2.386,0,0,1-1.136-.291c.014-.152.031-.512.045-.951Z" transform="translate(1707.891 4987.177)" fill="#f9f9f4"/>
    <path id="Path_11602" data-name="Path 11602" d="M75.737,87.127c-.073.267-.148.759-.2,1.12l-.226.013a1.97,1.97,0,0,0-.037-.408c-.039-.238-.134-.33-.592-.33h-.369l-.574,3.015c-.089.473-.052.537.524.576l-.046.2H72.3l.048-.2c.53-.039.578-.113.668-.576l.582-3.015h-.3c-.475,0-.585.073-.709.244a2.381,2.381,0,0,0-.285.488l-.228-.011a10.694,10.694,0,0,0,.272-1.116h.159c.066.135.127.133.3.133h2.449a.347.347,0,0,0,.312-.133h.172Z" transform="translate(1701.421 4987.239)" fill="#f9f9f4"/>
    <path id="Path_11603" data-name="Path 11603" d="M84.143,95.834a.434.434,0,0,1-.437-.466.526.526,0,0,1,.522-.551.438.438,0,0,1,.442.478.518.518,0,0,1-.526.54" transform="translate(1694.713 4982.804)" fill="#f9f9f4"/>
    <rect id="Rectangle_4618" data-name="Rectangle 4618" width="2.46" height="0.785" transform="translate(1789.719 5076.653)" fill="#f9f9f4"/>
    <path id="Path_11604" data-name="Path 11604" d="M124.3,83.794a1.7,1.7,0,0,1,1.813-1.887c1.081,0,1.665.647,1.665,1.92v.689H126.66v-.8c0-.519-.2-.774-.594-.774s-.594.255-.594.774V87.9c0,.519.2.785.594.785s.594-.265.594-.785V86.732h-.7v-.954h1.813v3.775h-.551l-.222-.52a1.167,1.167,0,0,1-1.114.679c-1.029,0-1.591-.721-1.591-2.079Z" transform="translate(1671.298 4990.251)" fill="#f9f9f4"/>
    <path id="Path_11605" data-name="Path 11605" d="M142.193,85.539h.456c.562,0,.71-.307.71-1.135,0-.8-.191-1.039-.753-1.039h-.414Zm0,4.231h-1.156V82.284h1.7c1.251,0,1.8.625,1.8,2.163a2.014,2.014,0,0,1-.732,1.845l.848,3.478h-1.2l-.71-3.149h-.551Z" transform="translate(1661.641 4990.034)" fill="#f9f9f4"/>
    <path id="Path_11606" data-name="Path 11606" d="M159.567,83.72c0-.519-.2-.774-.594-.774s-.594.255-.594.774V87.9c0,.519.2.785.594.785s.594-.265.594-.785Zm-.551-1.813a1.7,1.7,0,0,1,1.739,1.92v3.838c0,1.325-.657,2.046-1.781,2.046-1.145,0-1.771-.71-1.771-2.078V83.794a1.7,1.7,0,0,1,1.813-1.887" transform="translate(1652.315 4990.252)" fill="#f9f9f4"/>
    <path id="Path_11607" data-name="Path 11607" d="M175.071,82.283v5.8a.626.626,0,0,0,.615.71c.35,0,.583-.255.583-.71v-5.8h1.177v5.6c0,1.325-.647,2.046-1.771,2.046-1.145,0-1.781-.71-1.781-2.078V82.283Z" transform="translate(1642.687 4990.034)" fill="#f9f9f4"/>
    <path id="Path_11608" data-name="Path 11608" d="M192.522,85.655c.573,0,.71-.318.71-1.188,0-.838-.17-1.1-.753-1.1h-.414v2.29Zm-1.612-3.372h1.7c1.251,0,1.8.636,1.8,2.163,0,1.464-.625,2.28-1.548,2.28h-.8v3.043h-1.156Z" transform="translate(1632.87 4990.034)" fill="#f9f9f4"/>
    <rect id="Rectangle_4619" data-name="Rectangle 4619" width="2.46" height="0.785" transform="translate(1830.452 5076.653)" fill="#f9f9f4"/>
    <path id="Path_11609" data-name="Path 11609" d="M239.355,88.02a1.26,1.26,0,0,1,.893-.357.99.99,0,0,1,1.045,1.034c0,.667-.436,1.053-1.349,1.782l-.693.571h1.06c.359,0,.445-.046.741-.469l.189.075c-.131.3-.3.68-.406.968h-2.463l.025-.159c1.4-1.2,2.173-1.851,2.173-2.636a.583.583,0,0,0-.619-.66,1.132,1.132,0,0,0-.859.533l-.154-.151Z" transform="translate(1605.492 4986.931)" fill="#f9f9f4"/>
    <path id="Path_11610" data-name="Path 11610" d="M251.668,87.907c-.637,0-1.032,1.9-1.032,2.772,0,.333.036.775.375.775.623,0,1.023-1.911,1.023-2.767,0-.362-.026-.781-.366-.781m-.7,3.794c-.817,0-1.028-.672-1.028-1.328,0-1.029.56-2.709,1.764-2.709.823,0,1.013.716,1.011,1.292,0,1.2-.606,2.745-1.747,2.745" transform="translate(1598.816 4986.93)" fill="#f9f9f4"/>
    <path id="Path_11611" data-name="Path 11611" d="M262.215,90.822c-.081.418-.065.54.273.576.06.006.241.019.31.025l-.056.2h-2.053l.045-.2c.05-.006.233-.016.275-.023.381-.05.423-.114.517-.578l.435-2.2c.073-.38.027-.409-.307-.427-.058,0-.169-.011-.219-.011l.045-.2a6.606,6.606,0,0,0,1.346-.324Z" transform="translate(1592.618 4986.931)" fill="#f9f9f4"/>
    <path id="Path_11612" data-name="Path 11612" d="M273.28,87.907c-.637,0-1.032,1.9-1.032,2.772,0,.333.036.775.375.775.623,0,1.023-1.911,1.023-2.767,0-.362-.025-.781-.366-.781m-.7,3.794c-.817,0-1.028-.672-1.028-1.328,0-1.029.559-2.709,1.764-2.709.823,0,1.013.716,1.011,1.292,0,1.2-.606,2.745-1.747,2.745" transform="translate(1586.35 4986.93)" fill="#f9f9f4"/>
  </g>
</svg>
