<svg id="Layer_1" data-name="Layer 1" xmlns="http://www.w3.org/2000/svg" viewBox="0 0 239.024 282.6895"><defs><style>.cls-1{fill:#3d3935;}.cls-2{fill:#65665d;}.cls-3{fill:#231f20;}</style></defs><path class="cls-1" d="M40.19,107.9974c.352,6.248,2.2876,9.2392,6.3359,9.2392a5.6121,5.6121,0,0,0,5.8955-5.9834c0-5.1914-3.52-8.3593-8.6235-13.4638-6.9522-6.9512-11.88-12.0557-11.88-20.2393,0-8.9756,6.7759-15.5752,14.8716-15.5752,7.92,0,13.64,5.72,14.3437,15.3994l-9.3276,1.32c-.3521-5.3681-1.76-7.7441-5.28-7.7441-2.9922,0-5.104,2.2-5.104,5.72,0,5.6319,4.1357,9.4161,9.5918,14.6953,6.6,6.4239,10.7353,11.0879,10.7353,19.712,0,9.1513-6.3354,15.4873-14.8715,15.4873-9.3277,0-15.3995-6.2481-15.8394-17.1592Z" transform="translate(-2.077 -4.1347)"/><path class="cls-1" d="M71.6938,77.3743c0-9.68,5.5439-15.664,15.0478-15.664,8.7115,0,14.4317,5.8965,14.4317,15.9277v5.9844h-9.856V76.7581c0-4.3115-1.6719-6.4238-4.9277-6.4238s-4.9278,2.1123-4.9278,6.4238V111.429c0,4.3125,1.6719,6.5117,4.9278,6.5117s4.9277-2.1992,4.9277-6.5117v-8.4472h9.856v6.5117c0,10.999-5.4561,16.9834-14.7837,16.9834-9.68,0-14.6958-5.8955-14.6958-17.2481Z" transform="translate(-2.077 -4.1347)"/><path class="cls-1" d="M127.6611,61.71c8.7114,0,14.4316,5.8965,14.4316,15.9277v31.8555c0,10.999-5.4561,16.9834-14.7837,16.9834-9.5039,0-14.6958-5.8955-14.6958-17.2481V77.3743C112.6132,67.6946,118.1572,61.71,127.6611,61.71Zm4.5756,15.0478c0-4.3115-1.6718-6.4238-4.9277-6.4238s-4.9277,2.1123-4.9277,6.4238V111.429c0,4.3125,1.6719,6.5117,4.9277,6.5117s4.9277-2.1992,4.9277-6.5117Z" transform="translate(-2.077 -4.1347)"/><path class="cls-1" d="M149.749,63.0306h32.2932l-5.7264,8.9756h-7.0317v53.15h-9.5918v-53.15H149.749Z" transform="translate(-2.077 -4.1347)"/><path class="cls-1" d="M187.2991,63.0306h24.84v8.9756H202.1078v53.15H192.516v-53.15H181.5727Z" transform="translate(-2.077 -4.1347)"/><path class="cls-1" d="M178.71,154.6552h32.2933l-5.7264,8.9756h-7.0317v53.15h-9.5918v-53.15H178.71Z" transform="translate(-2.077 -4.1347)"/><path class="cls-1" d="M216.2605,154.6552h24.8406v8.9756H231.0693v53.15h-9.5918v-53.15H210.5342Z" transform="translate(-2.077 -4.1347)"/><path class="cls-1" d="M2.077,154.6312h14.08c10.3838,0,14.9595,5.2793,14.9595,17.9511,0,12.1436-5.1919,18.919-12.8477,18.919h-6.6v25.2558H2.077Zm13.3755,27.9824c4.752,0,5.896-2.64,5.896-9.8555,0-6.9521-1.4082-9.1513-6.248-9.1513H11.6688v19.0068Z" transform="translate(-2.077 -4.1347)"/><path class="cls-1" d="M42.205,154.6312h9.768v62.1259H42.205Z" transform="translate(-2.077 -4.1347)"/><path class="cls-1" d="M64.82,168.9739c0-9.68,5.544-15.663,15.0479-15.663,8.7114,0,14.4316,5.8955,14.4316,15.9277v5.9834h-9.856v-6.8633c0-4.3125-1.6718-6.4238-4.9277-6.4238s-4.9277,2.1113-4.9277,6.4238V203.03c0,4.3115,1.6718,6.5117,4.9277,6.5117s4.9277-2.2,4.9277-6.5117v-8.4482h9.856v6.5117c0,11-5.4561,16.9834-14.7837,16.9834-9.68,0-14.6958-5.8955-14.6958-17.2471Z" transform="translate(-2.077 -4.1347)"/><path class="cls-1" d="M106.8837,154.6312h9.5918v26.2226a36.55,36.55,0,0,1,1.32-4.0478l9.5039-22.1748h9.5039l-10.6479,21.207,11.88,40.9189h-9.9438l-8.0957-31.2392-3.52,7.04v24.1992h-9.5918Z" transform="translate(-2.077 -4.1347)"/><path class="cls-1" d="M147.3627,154.6312h24.9912v8.9756H156.9545v16.2793h11.0879v8.9755H156.9545V207.429h15.3994v9.3281H147.3627Z" transform="translate(-2.077 -4.1347)"/><path class="cls-2" d="M52.3487,276.2168h7.8877v2.5166H52.3487Z" transform="translate(-2.077 -4.1347)"/><path class="cls-2" d="M71.1856,267.8545c0-3.74,2.1407-6.0518,5.8125-6.0518,3.4678,0,5.3379,2.0732,5.3379,6.1533v2.21h-3.57v-2.55c0-1.666-.6455-2.4815-1.9033-2.4815s-1.9033.8155-1.9033,2.4815v13.3945c0,1.666.6455,2.5156,1.9033,2.5156s1.9033-.85,1.9033-2.5156v-3.7393H76.5225v-3.0605H82.336v12.1035H80.5684l-.7148-1.666a3.74,3.74,0,0,1-3.5684,2.1758c-3.2988,0-5.1-2.3115-5.1-6.6631Z" transform="translate(-2.077 -4.1347)"/><path class="cls-2" d="M97.6016,286.3144h-3.705V262.3125H99.336c4.0117,0,5.7793,2.0058,5.7793,6.9355,0,2.8555-.6123,4.6914-2.3457,5.915l2.72,11.1514h-3.8418l-2.2783-10.0976H97.6016Zm0-13.5644h1.462c1.8017,0,2.2783-.9864,2.2783-3.6377,0-2.55-.6123-3.3321-2.4141-3.3321H97.6016Z" transform="translate(-2.077 -4.1347)"/><path class="cls-2" d="M121.64,261.8027c3.3662,0,5.5752,2.2773,5.5752,6.1533v12.3067c0,4.25-2.1074,6.5615-5.7109,6.5615-3.6719,0-5.6777-2.2783-5.6777-6.6631V267.8545C115.8263,264.1142,117.9679,261.8027,121.64,261.8027Zm1.7676,5.8135c0-1.666-.6455-2.4815-1.9033-2.4815s-1.9043.8155-1.9043,2.4815v13.3945c0,1.666.6465,2.5156,1.9043,2.5156s1.9033-.85,1.9033-2.5156Z" transform="translate(-2.077 -4.1347)"/><path class="cls-2" d="M142.2432,262.3125v18.5966a2.0056,2.0056,0,0,0,1.9717,2.2774c1.1221,0,1.87-.8164,1.87-2.2774V262.3125h3.7735v17.95c0,4.25-2.0733,6.5615-5.6768,6.5615-3.6719,0-5.7119-2.2783-5.7119-6.6631V262.3125Z" transform="translate(-2.077 -4.1347)"/><path class="cls-2" d="M161.5547,262.3125h5.44c4.0117,0,5.7793,2.04,5.7793,6.9355,0,4.6914-2.0058,7.31-4.9629,7.31h-2.55v9.7568h-3.7061Zm5.168,10.81c1.836,0,2.2774-1.0195,2.2774-3.8076,0-2.6856-.544-3.5352-2.4141-3.5352h-1.3252v7.3428Z" transform="translate(-2.077 -4.1347)"/><path class="cls-2" d="M182.9415,276.2168h7.8867v2.5166h-7.8867Z" transform="translate(-2.077 -4.1347)"/><path class="cls-3" d="M74.9112,4.5615c1.0127,0,1.9639,0,2.7178-.0195-.1328.6357-.3535,2.1855-.52,3.1445l-.7119.0459C76.3175,5.8339,76.0421,5.4,74.7159,5.4H73.1251c-.7246,0-.9824.0917-1.1358.8515l-.788,4.1318h1.7353c1.667,0,1.7334-.2392,2.3066-1.6269h.7041l-.82,4.1924h-.7041c.0264-1.54.0342-1.7139-1.6406-1.7139H71.01l-.6875,3.626c-.2871,1.42-.17,1.8652,1.1211,1.8652H72.69a2.71,2.71,0,0,0,2.1436-.6142,7.22,7.22,0,0,0,1.45-1.9317l.6709.252c-.2256.6777-.8936,2.46-1.1924,3.1318H65.669l.1533-.6514c1.6563-.1406,1.8682-.2656,2.168-1.84l1.5674-8c.3-1.5664.1611-1.707-1.4883-1.8477l.1719-.664Z" transform="translate(-2.077 -4.1347)"/><path class="cls-3" d="M84.1085,13.8086c.2,1.5039.9111,3.2519,3.04,3.2519a2.0924,2.0924,0,0,0,2.2461-2.2617,3.236,3.236,0,0,0-1.6953-2.6641l-.6611-.4941c-1.0909-.8125-2.29-1.8438-2.29-3.5449,0-2.18,1.668-3.8135,4.3672-3.8135a10.8248,10.8248,0,0,1,3.2344.5459,26.3151,26.3151,0,0,0-.4121,3.0166l-.6914.0527c-.0449-1.3779-.4219-2.8642-2.3457-2.8642a2.01,2.01,0,0,0-2.0918,2.205c0,1.0245.5234,1.6329,1.5908,2.4l.6943.5009c1.3926,1.0078,2.5078,2.0479,2.5078,3.71,0,2.3613-2.0293,4.0166-4.6679,4.0166a7.6755,7.6755,0,0,1-3.6426-.9346c.0469-.4873.1-1.6406.1465-3.0488Z" transform="translate(-2.077 -4.1347)"/><path class="cls-3" d="M110.2423,4.1347c-.2344.8555-.4737,2.4326-.6543,3.5908l-.7237.04a6.3706,6.3706,0,0,0-.1191-1.3086c-.126-.7627-.4307-1.0566-1.9-1.0566h-1.1807l-1.8418,9.666c-.2871,1.5156-.166,1.72,1.68,1.8466l-.1455.6514h-6.126l.1543-.6514c1.6993-.1269,1.8536-.3632,2.14-1.8466L103.3927,5.4h-.9668c-1.5225,0-1.875.2333-2.2745.78a7.7419,7.7419,0,0,0-.913,1.5664l-.7315-.0341a34.0861,34.0861,0,0,0,.8721-3.5782h.5117c.2139.4346.4082.4268.9473.4268H108.69a1.1158,1.1158,0,0,0,1.001-.4268Z" transform="translate(-2.077 -4.1347)"/><path class="cls-3" d="M115.6846,17.8291a1.3911,1.3911,0,0,1-1.4013-1.4971,1.6857,1.6857,0,0,1,1.6719-1.7666,1.4056,1.4056,0,0,1,1.416,1.5332A1.6608,1.6608,0,0,1,115.6846,17.8291Z" transform="translate(-2.077 -4.1347)"/><path class="cls-3" d="M126.7647,6.0068a4.0364,4.0364,0,0,1,2.8623-1.1445,3.1757,3.1757,0,0,1,3.35,3.3164c0,2.1377-1.4,3.3759-4.3242,5.7138l-2.2227,1.83h3.3995c1.1523,0,1.4267-.1465,2.376-1.5039l.6035.24c-.42.9512-.9658,2.1817-1.3,3.1055h-7.8975l.0781-.5107c4.4825-3.8438,6.9678-5.9356,6.9678-8.4522a1.8689,1.8689,0,0,0-1.9834-2.1142,3.63,3.63,0,0,0-2.7559,1.7089l-.4921-.4843Z" transform="translate(-2.077 -4.1347)"/><path class="cls-3" d="M142.6046,17.8046c-2.62,0-3.294-2.1542-3.294-4.2578,0-3.3,1.793-8.6845,5.6543-8.6845,2.6406,0,3.249,2.2949,3.2422,4.1416C148.2071,12.8652,146.2657,17.8046,142.6046,17.8046Zm2.2343-12.164c-2.0439,0-3.3095,6.0869-3.3095,8.8877,0,1.0683.1172,2.4853,1.2021,2.4853,1.9971,0,3.2823-6.125,3.2823-8.8691C146.0206,6.9824,145.9317,5.6406,144.8389,5.6406Z" transform="translate(-2.077 -4.1347)"/><path class="cls-3" d="M158.78,14.9882c-.2588,1.3409-.21,1.7315.875,1.8457.1923.02.7724.06.9931.0791l-.18.6514h-6.582l.1465-.6514c.16-.02.7461-.0527.88-.0722,1.2216-.16,1.3564-.3653,1.6562-1.8526l1.3955-7.0517c.2324-1.2178.0869-1.3115-.9824-1.37-.1875-.0127-.541-.0332-.7021-.0332l.1464-.6309a21.1414,21.1414,0,0,0,4.3145-1.04Z" transform="translate(-2.077 -4.1347)"/><path class="cls-3" d="M171.9239,17.8046c-2.6192,0-3.2939-2.1542-3.2939-4.2578,0-3.3,1.7939-8.6845,5.6552-8.6845,2.6407,0,3.2481,2.2949,3.2412,4.1416C177.5264,12.8652,175.585,17.8046,171.9239,17.8046Zm2.2344-12.164c-2.043,0-3.3086,6.0869-3.3086,8.8877,0,1.0683.1172,2.4853,1.2012,2.4853,1.997,0,3.2822-6.125,3.2822-8.8691C175.34,6.9824,175.2511,5.6406,174.1583,5.6406Z" transform="translate(-2.077 -4.1347)"/></svg>