<svg id="Layer_1" data-name="Layer 1" xmlns="http://www.w3.org/2000/svg" viewBox="0 0 325.9843 100.3513"><defs><style>.cls-1{fill:#3d3935;}.cls-2{fill:#65665d;}</style></defs><path class="cls-1" d="M6.7464,34.12c.26,4.6055,1.6861,6.81,4.6705,6.81A4.1365,4.1365,0,0,0,15.7626,36.52c0-3.8259-2.5946-6.1617-6.3566-9.9247C4.2817,21.4719.6487,17.7089.6487,11.6761A11.1136,11.1136,0,0,1,11.6108.1952c5.8389,0,10.0547,4.2168,10.5734,11.352l-6.8753.9724c-.26-3.9569-1.2973-5.7079-3.892-5.7079-2.2058,0-3.762,1.6221-3.762,4.2157,0,4.1518,3.0484,6.9414,7.07,10.8333,4.8644,4.7345,7.9128,8.1727,7.9128,14.53,0,6.7454-4.67,11.4159-10.9622,11.4159C4.8005,47.8069.3248,43.2014,0,35.1586Z"/><path class="cls-1" d="M29.9688,11.5469C29.9688,4.4117,34.0556,0,41.0609,0c6.4216,0,10.6384,4.3467,10.6384,11.7408v4.4116H44.4341V11.0931c0-3.1783-1.2323-4.7355-3.632-4.7355S37.169,7.9148,37.169,11.0931V36.65c0,3.1793,1.2323,4.8,3.6331,4.8s3.632-1.6211,3.632-4.8V30.4229h7.2652v4.8c0,8.1077-4.0219,12.5184-10.8972,12.5184-7.1353,0-10.8333-4.3457-10.8333-12.7133Z"/><path class="cls-1" d="M74.5973,11.0924c0-3.1783-1.2323-4.7355-3.6331-4.7355s-3.632,1.5572-3.632,4.7355V36.65c0,3.1784,1.2323,4.8,3.632,4.8s3.6331-1.6211,3.6331-4.8ZM71.2241,0C77.6457,0,81.8625,4.347,81.8625,11.7411V35.2226c0,8.1077-4.0219,12.5194-10.8983,12.5194-7.0052,0-10.8322-4.3457-10.8322-12.7143V11.5472C60.132,4.412,64.2188,0,71.2241,0"/><polygon class="cls-1" points="87.506 0.974 111.31 0.974 107.09 7.59 101.906 7.59 101.906 46.769 94.836 46.769 94.836 7.59 87.506 7.59 87.506 0.974"/><polygon class="cls-1" points="115.185 0.974 133.496 0.974 133.496 7.59 126.102 7.59 126.102 46.769 119.031 46.769 119.031 7.59 110.965 7.59 115.185 0.974"/><polygon class="cls-1" points="279.995 1.024 303.799 1.024 299.578 7.641 294.395 7.641 294.395 46.82 287.324 46.82 287.324 7.641 279.995 7.641 279.995 1.024"/><polygon class="cls-1" points="307.674 1.024 303.452 7.64 311.52 7.64 311.52 46.82 318.59 46.82 318.59 7.64 325.984 7.64 325.984 1.024 307.674 1.024"/><path class="cls-1" d="M159.6516,21.6334c3.5021,0,4.3457-1.946,4.3457-7.2651,0-5.1243-1.0375-6.7455-4.6056-6.7455h-2.53V21.6334Zm-9.86-20.627H160.17c7.654,0,11.0272,3.8919,11.0272,13.2319,0,8.9523-3.827,13.9466-9.47,13.9466h-4.8654V46.8021h-7.07Z"/><rect class="cls-1" x="179.3711" y="1.0067" width="7.2002" height="45.7957"/><path class="cls-1" d="M196.0416,11.5788c0-7.1352,4.0868-11.5458,11.0921-11.5458,6.4216,0,10.6384,4.3457,10.6384,11.7408v4.4106h-7.2652V11.1251c0-3.1783-1.2323-4.7345-3.6321-4.7345s-3.633,1.5562-3.633,4.7345V36.6825c0,3.1783,1.2323,4.8005,3.633,4.8005s3.6321-1.6222,3.6321-4.8V30.4548h7.2652v4.8005c0,8.1087-4.0219,12.5183-10.8973,12.5183-7.1352,0-10.8332-4.3456-10.8332-12.7132Z"/><path class="cls-1" d="M227.0484,1.0064h7.07v19.33a26.6542,26.6542,0,0,1,.9735-2.9834l7.0053-16.3463h7.0052l-7.8488,15.6327,8.7574,30.163h-7.33l-5.9678-23.0278-2.5946,5.1892V46.8021h-7.07Z"/><polygon class="cls-1" points="256.887 1.006 275.309 1.006 275.309 7.623 263.957 7.623 263.957 19.622 272.131 19.622 272.131 26.239 263.957 26.239 263.957 39.926 275.309 39.926 275.309 46.802 256.887 46.802 256.887 1.006"/><path class="cls-2" d="M54.6839,87.4417c.7466,0,1.4482,0,2.0029-.014-.0979.4678-.26,1.61-.3828,2.3178l-.5247.034c-.059-1.4-.2619-1.7191-1.2393-1.7191H53.3676c-.5347,0-.7246.0669-.8376.6276l-.5807,3.0454h1.2794c1.2283,0,1.2773-.1759,1.7-1.1993h.5187l-.6047,3.0913h-.5187c.019-1.1364.025-1.2643-1.2094-1.2643H51.8074l-.5067,2.6726c-.2119,1.0474-.124,1.3752.8265,1.3752h.9186a1.996,1.996,0,0,0,1.58-.4527,5.293,5.293,0,0,0,1.0695-1.4243l.4947.1859c-.1669.5-.6587,1.8131-.8785,2.3088h-7.44l.1119-.48c1.2214-.104,1.3783-.1959,1.5992-1.3563l1.1554-5.8979c.2209-1.1544.1179-1.2583-1.0974-1.3613l.1269-.49Z"/><path class="cls-2" d="M61.4635,94.2581c.1479,1.1084.6716,2.3967,2.2408,2.3967A1.5418,1.5418,0,0,0,65.36,94.9877a2.3854,2.3854,0,0,0-1.25-1.963l-.4868-.3648a3.32,3.32,0,0,1-1.6891-2.6126c0-1.6071,1.23-2.8115,3.2193-2.8115a7.9739,7.9739,0,0,1,2.3848.4028,19.15,19.15,0,0,0-.3039,2.2238l-.51.038c-.033-1.0155-.3108-2.1109-1.7291-2.1109a1.4822,1.4822,0,0,0-1.5422,1.6252c0,.7556.3858,1.2033,1.1734,1.769l.5117.3688c1.0265.7436,1.8481,1.51,1.8481,2.7356,0,1.74-1.4962,2.96-3.44,2.96a5.64,5.64,0,0,1-2.6846-.6886c.033-.36.073-1.2094.107-2.2478Z"/><path class="cls-2" d="M80.7273,87.1272c-.1719.6306-.3489,1.793-.4818,2.6466l-.5337.03a4.6594,4.6594,0,0,0-.0879-.9644c-.093-.5627-.3179-.78-1.4-.78h-.8715l-1.3573,7.1252c-.2109,1.1174-.122,1.2683,1.2393,1.3613l-.1079.4807H72.6106l.1129-.4807c1.2533-.093,1.3663-.2679,1.5782-1.3613L75.6779,88.06h-.7126c-1.1214,0-1.3822.1729-1.6761.5757a5.6216,5.6216,0,0,0-.6726,1.1544l-.54-.025a25.2777,25.2777,0,0,0,.6436-2.6376h.3768c.1569.32.3.3148.6986.3148h5.787a.8213.8213,0,0,0,.7376-.3148Z"/><path class="cls-2" d="M84.7393,97.2217a1.025,1.025,0,0,1-1.0334-1.1024,1.2434,1.2434,0,0,1,1.2333-1.3033,1.0361,1.0361,0,0,1,1.0435,1.13,1.2237,1.2237,0,0,1-1.2434,1.2753"/><rect class="cls-2" x="110.4107" y="92.5321" width="5.8139" height="1.854"/><path class="cls-2" d="M124.296,86.3677c0-2.7566,1.5781-4.4607,4.2857-4.4607,2.5556,0,3.9339,1.5282,3.9339,4.5366v1.6282H129.884v-1.88c0-1.2274-.4758-1.8291-1.4033-1.8291s-1.4032.6017-1.4032,1.8291v9.8747c0,1.2274.4767,1.854,1.4032,1.854s1.4033-.6266,1.4033-1.854V93.309H128.23V91.0542h4.2857v8.9213h-1.3033l-.5257-1.2284a2.7588,2.7588,0,0,1-2.6316,1.6042c-2.4307,0-3.759-1.7041-3.759-4.9124Z"/><path class="cls-2" d="M143.7685,89.9765h1.0774c1.3283,0,1.6792-.7267,1.6792-2.6816,0-1.88-.4508-2.4557-1.7791-2.4557h-.9775Zm0,9.9987H141.037V82.2835h4.01c2.9575,0,4.2608,1.4783,4.2608,5.1113,0,2.1059-.4518,3.4592-1.7291,4.3607l2.0039,8.22h-2.8315l-1.6791-7.4431h-1.3033Z"/><path class="cls-2" d="M162.7911,86.1925c0-1.2274-.4767-1.83-1.4032-1.83s-1.4043.6027-1.4043,1.83v9.8737c0,1.2274.4768,1.854,1.4043,1.854s1.4032-.6266,1.4032-1.854Zm-1.3033-4.2858c2.4807,0,4.11,1.6791,4.11,4.5366v9.0712c0,3.1324-1.5531,4.8365-4.21,4.8365-2.7066,0-4.1858-1.6792-4.1858-4.9114V86.3674c0-2.7556,1.5792-4.4607,4.2857-4.4607"/><path class="cls-2" d="M176.6754,82.2832V95.991A1.4784,1.4784,0,0,0,178.13,97.67c.8266,0,1.3773-.6017,1.3773-1.6791V82.2832h2.7815v13.232c0,3.1314-1.5282,4.8355-4.1848,4.8355-2.7056,0-4.21-1.6782-4.21-4.9114V82.2832Z"/><path class="cls-2" d="M194.72,90.252c1.3533,0,1.6791-.7516,1.6791-2.8065,0-1.98-.4008-2.6056-1.779-2.6056h-.9775V90.252Zm-3.809-7.9688h4.01c2.9564,0,4.26,1.5032,4.26,5.1113,0,3.4592-1.4782,5.3882-3.659,5.3882h-1.879v7.1922h-2.7316Z"/><rect class="cls-2" x="206.6757" y="92.5321" width="5.8139" height="1.854"/><path class="cls-2" d="M240.6957,88.507a2.9771,2.9771,0,0,1,2.11-.8435,2.34,2.34,0,0,1,2.4687,2.4447c0,1.5752-1.0315,2.4887-3.1873,4.2118l-1.6382,1.3492h2.5057c.85,0,1.0515-.1079,1.7511-1.1084l.4457.1769c-.31.7007-.7126,1.6082-.9584,2.2888h-5.822l.058-.3768c3.3043-2.8335,5.1363-4.3747,5.1363-6.23a1.378,1.378,0,0,0-1.4622-1.5592,2.6749,2.6749,0,0,0-2.031,1.26l-.3628-.3568Z"/><path class="cls-2" d="M254.0189,88.2375c-1.5062,0-2.44,4.4866-2.44,6.5515,0,.7876.086,1.832.8866,1.832,1.4712,0,2.4187-4.5156,2.4187-6.5385.005-.8565-.061-1.845-.8656-1.845m-1.6471,8.9662c-1.931,0-2.4287-1.5881-2.4287-3.1383,0-2.4327,1.3223-6.4016,4.1688-6.4016,1.9459,0,2.3947,1.6911,2.39,3.0524,0,2.8465-1.4312,6.4875-4.13,6.4875"/><path class="cls-2" d="M264.2952,95.1276c-.1909.9885-.154,1.2763.6456,1.36.142.015.57.044.7316.059l-.1319.48h-4.8514l.1069-.48c.1179-.015.5507-.039.6487-.054.9015-.1179,1-.2689,1.2213-1.3653l1.0285-5.1982c.1719-.8975.0639-.9665-.7246-1.01-.138-.01-.3988-.025-.5168-.025l.107-.4647a15.6156,15.6156,0,0,0,3.1813-.7666Z"/><path class="cls-2" d="M275.6315,88.2375c-1.5061,0-2.44,4.4866-2.44,6.5515,0,.7876.086,1.832.8866,1.832,1.4712,0,2.4187-4.5156,2.4187-6.5385.005-.8565-.06-1.845-.8656-1.845m-1.6471,8.9662c-1.9309,0-2.4287-1.5881-2.4287-3.1383,0-2.4327,1.3223-6.4016,4.1688-6.4016,1.946,0,2.3947,1.6911,2.39,3.0524,0,2.8465-1.4312,6.4875-4.13,6.4875"/></svg>